<?xml version="1.0" standalone="no"?>
<!DOCTYPE svg PUBLIC "-//W3C//DTD SVG 20010904//EN"
 "http://www.w3.org/TR/2001/REC-SVG-20010904/DTD/svg10.dtd">
<svg version="1.0" xmlns="http://www.w3.org/2000/svg"
 width="500.000000pt" height="500.000000pt" viewBox="0 0 500.000000 500.000000"
 preserveAspectRatio="xMidYMid meet">

<g transform="translate(0.000000,500.000000) scale(0.100000,-0.100000)"
fill="#000000" stroke="none">
<path d="M2450 4259 c0 -6 -4 -7 -10 -4 -12 8 -57 -17 -92 -49 -15 -14 -44
-56 -64 -93 -44 -79 -156 -275 -239 -418 -32 -55 -119 -206 -193 -335 -74
-129 -174 -303 -223 -387 -49 -83 -97 -167 -107 -185 -11 -18 -106 -181 -212
-363 -106 -181 -249 -427 -318 -545 -69 -118 -177 -303 -240 -410 -63 -107
-121 -212 -128 -234 -46 -129 33 -275 165 -303 20 -5 797 -8 1726 -8 l1690 0
47 23 c50 25 112 87 103 103 -4 5 -2 9 3 9 6 0 12 7 15 14 4 10 1 13 -9 9 -10
-4 -17 2 -21 16 -8 30 -37 20 -91 -33 -33 -32 -45 -38 -51 -27 -5 7 -14 10
-20 7 -6 -4 -11 -4 -11 1 0 4 -10 9 -22 9 -13 1 -44 10 -71 19 -39 14 -46 21
-42 36 4 11 2 19 -5 19 -6 0 0 15 13 33 14 17 32 47 42 66 16 32 16 34 -4 55
-12 12 -18 26 -13 32 4 5 -12 -12 -36 -37 -79 -88 -195 -157 -332 -201 -67
-20 -94 -23 -245 -23 -159 1 -177 3 -285 32 -140 38 -293 105 -465 205 -72 41
-184 106 -250 144 -307 178 -459 220 -772 212 l-183 -5 -1 26 c0 14 -2 34 -4
45 -5 27 5 46 21 39 8 -3 14 -1 14 5 0 35 433 41 553 7 32 -8 62 -13 67 -10 6
3 10 2 10 -3 0 -4 24 -14 53 -22 94 -23 270 -105 473 -217 344 -191 498 -257
654 -282 193 -31 384 14 495 117 22 20 36 34 31 30 -5 -3 -15 -4 -24 -1 -8 4
-13 2 -9 -3 3 -5 -3 -10 -14 -10 -10 0 -19 5 -19 10 0 5 -10 1 -22 -10 -12
-10 -18 -14 -15 -7 4 7 -7 4 -25 -5 -23 -12 -58 -17 -118 -17 -89 0 -138 13
-177 48 l-23 20 64 43 c36 24 68 49 72 56 4 7 -1 6 -12 -3 -66 -55 -207 -93
-339 -92 -146 1 -241 36 -536 194 -132 72 -320 160 -337 159 -4 -1 9 -9 28
-19 33 -18 34 -19 8 -18 -14 1 -24 6 -20 11 3 5 -5 7 -16 4 -14 -4 -20 -2 -15
5 4 6 -2 8 -17 4 -13 -3 -30 -1 -37 5 -9 7 -17 7 -29 -3 -9 -7 -18 -9 -22 -3
-12 17 -51 34 -77 34 -14 0 -25 4 -25 8 0 5 -12 13 -27 19 -21 8 122 11 547
12 316 1 607 6 647 11 240 31 384 221 371 490 -5 92 -43 239 -69 265 -6 6 -6
-2 1 -19 6 -16 8 -31 5 -34 -3 -4 -8 4 -11 16 -5 18 -8 19 -20 7 -8 -7 -14
-18 -14 -24 0 -5 -4 -12 -9 -15 -4 -3 -6 6 -3 19 2 15 0 25 -7 25 -6 0 -11 9
-11 21 0 11 -5 29 -10 40 -8 13 -7 25 1 40 9 17 8 20 -2 14 -9 -6 -11 1 -6 30
5 31 4 35 -6 21 -11 -14 -12 -14 -12 8 0 13 3 22 8 19 4 -2 7 -2 7 0 0 6 -104
186 -227 397 -90 152 -171 292 -218 373 -29 51 -36 57 -33 30 3 -36 -2 -53
-15 -53 -8 0 -45 24 -84 53 -131 98 -257 147 -378 147 -33 0 -67 5 -75 10 -8
5 -10 10 -4 10 10 0 57 33 101 70 7 5 26 10 42 10 16 0 33 5 36 10 4 7 13 7
26 0 13 -7 25 -7 38 -1 13 7 29 7 50 0 27 -10 35 -8 53 7 20 18 21 18 15 1 -4
-10 -3 -16 2 -13 5 3 14 -1 21 -9 7 -8 21 -15 30 -15 10 0 21 -6 23 -12 4 -10
6 -10 6 0 1 6 -8 21 -19 32 -11 11 -20 22 -20 25 0 3 0 10 0 16 0 5 -5 7 -12
3 -6 -4 -8 -3 -4 4 5 9 -42 100 -161 307 -38 66 -105 108 -179 112 -32 1 -54
-2 -54 -8z m42 -858 c130 -41 295 -176 392 -320 54 -82 89 -152 171 -341 82
-188 118 -253 229 -415 104 -151 171 -283 162 -318 -5 -20 -72 -67 -97 -67 -5
0 -29 39 -53 88 -24 48 -79 146 -120 217 -93 159 -196 365 -271 545 -31 74
-79 172 -106 217 -158 262 -412 353 -530 190 -33 -46 -50 -100 -77 -249 -28
-150 -79 -253 -174 -351 -115 -118 -234 -185 -429 -240 -125 -36 -142 -39
-134 -27 3 5 3 10 -2 10 -4 0 -7 20 -5 45 5 55 14 62 127 100 196 66 323 144
399 246 60 79 86 154 93 262 3 48 3 87 0 87 -3 0 -11 -24 -17 -54 -26 -127
-113 -253 -220 -321 -49 -31 -100 -48 -100 -34 0 5 -7 9 -16 9 -9 0 -12 5 -8
12 5 7 2 9 -9 5 -28 -11 -7 24 55 91 42 45 76 98 120 185 56 112 79 175 58
162 -4 -3 -10 5 -13 17 -10 38 124 177 217 225 109 57 227 65 358 24z m692
-400 c192 -272 260 -392 301 -526 34 -115 39 -151 25 -186 -11 -25 -67 -68
-74 -57 -1 2 -17 41 -35 88 -18 47 -69 146 -113 219 -45 74 -96 167 -114 205
-39 86 -99 279 -92 298 3 7 18 13 34 14 24 1 36 -8 68 -55z m-695 -259 c94
-163 274 -468 294 -499 12 -17 24 -30 28 -27 4 2 13 -4 20 -14 13 -15 12 -16
-3 -3 -10 7 -18 11 -18 8 0 -2 32 -62 70 -131 39 -70 70 -129 70 -132 0 -6
-1029 2 -1034 7 -4 5 517 869 524 869 3 0 25 -35 49 -78z m-609 -1372 c81 -27
211 -90 360 -175 63 -35 145 -78 182 -93 38 -16 65 -32 61 -35 -3 -4 2 -7 13
-7 18 -1 18 -1 2 -14 -17 -12 -16 -14 5 -25 l22 -11 -24 6 c-15 4 -21 2 -17
-4 18 -29 -142 26 -349 119 -203 91 -301 119 -440 126 -103 5 -227 -9 -292
-34 -10 -4 -14 -2 -9 5 3 6 2 13 -4 17 -6 4 -8 11 -5 16 4 5 0 9 -8 9 -23 0
-15 30 13 50 32 23 121 59 175 70 68 15 242 4 315 -20z"/>
<path d="M3091 3034 c0 -11 3 -14 6 -6 3 7 2 16 -1 19 -3 4 -6 -2 -5 -13z"/>
<path d="M2945 3669 c-4 -6 -5 -12 -2 -15 2 -3 7 2 10 11 7 17 1 20 -8 4z"/>
<path d="M2965 3631 c-6 -11 13 -26 22 -17 4 3 1 6 -6 6 -7 0 -9 5 -6 10 3 6
4 10 1 10 -3 0 -7 -4 -11 -9z"/>
<path d="M3519 2691 c6 -10 7 -22 3 -26 -4 -5 -1 -5 6 -1 9 5 9 12 2 27 -6 10
-13 19 -16 19 -2 0 0 -8 5 -19z"/>
<path d="M3536 2652 c-3 -5 1 -9 9 -9 8 0 12 4 9 9 -3 4 -7 8 -9 8 -2 0 -6 -4
-9 -8z"/>
<path d="M3537 2623 c-2 -5 0 -21 4 -38 7 -29 7 -28 6 8 -1 38 -3 43 -10 30z"/>
</g>
</svg>
