<svg fill="none" height="24" viewBox="0 0 24 24" width="24" xmlns="http://www.w3.org/2000/svg"><g stroke="#2a353d" stroke-linejoin="round" stroke-width="1.5"><g stroke-linecap="round"><path d="m2 12c0-3.53748 0-5.30623 1.0528-6.4871.16839-.18887.35398-.36355.55466-.52203 1.25467-.99087 3.13396-.99087 6.89254-.99087h3c3.7586 0 5.6379 0 6.8925.99087.2007.15848.3863.33316.5547.52203 1.0528 1.18087 1.0528 2.94962 1.0528 6.4871 0 3.5375 0 5.3062-1.0528 6.4871-.1684.1889-.354.3635-.5547.522-1.2546.9909-3.1339.9909-6.8925.9909h-3c-3.75858 0-5.63787 0-6.89254-.9909-.20068-.1585-.38627-.3331-.55466-.522-1.0528-1.1809-1.0528-2.9496-1.0528-6.4871z"/><path d="m10 16h1.5" stroke-miterlimit="10"/><path d="m14.5 16h3.5" stroke-miterlimit="10"/></g><path d="m2 9h20"/></g></svg>