<svg fill="none" height="24" viewBox="0 0 24 24" width="24" xmlns="http://www.w3.org/2000/svg"><g stroke="#2a353d" stroke-linecap="round" stroke-linejoin="round" stroke-width="1.5"><path d="m2.52992 14.394c-.21265 1.3531.73808 2.2922 1.90213 2.7602 4.46276 1.7944 10.67315 1.7944 15.13585 0 1.1641-.468 2.1148-1.4071 1.9022-2.7602-.1307-.8315-.7769-1.5239-1.2557-2.2-.6271-.8965-.6894-1.8743-.6895-2.91459 0-4.02031-3.369-7.27941-7.5249-7.27941-4.15587 0-7.52487 3.2591-7.52487 7.27941-.0001 1.04029-.06241 2.01809-.68952 2.91459-.47877.6761-1.125 1.3685-1.25569 2.2z"/><path d="m9 21c.79613.6219 1.8475 1 3 1s2.2039-.3781 3-1"/></g></svg>